<svg width="100" height="100" viewBox="0 0 100 100" fill="none" xmlns="http://www.w3.org/2000/svg">
<path d="M30.6545 48.8101C28.8972 45.7665 29.94 41.8745 32.9837 40.1173L71.5612 17.8445V17.8445C73.3185 20.8882 72.2757 24.7801 69.232 26.5374L30.6545 48.8101V48.8101Z" fill="#A79132"/>
<path d="M29.1774 71.707C27.4202 68.6633 28.463 64.7714 31.5067 63.0141L70.0842 40.7414V40.7414C71.8414 43.7851 70.7986 47.677 67.7549 49.4343L29.1774 71.707V71.707Z" fill="#A79132"/>
<path d="M29.9159 60.2588C28.1587 57.2151 29.2015 53.3231 32.2452 51.5659L70.8227 29.2931V29.2931C72.58 32.3368 71.5371 36.2288 68.4934 37.986L29.9159 60.2588V60.2588Z" fill="#A79132"/>
<path d="M28.4391 83.1555C26.6819 80.1118 27.7247 76.2199 30.7684 74.4626L69.3459 52.1899V52.1899C71.1032 55.2335 70.0603 59.1255 67.0166 60.8828L28.4391 83.1555V83.1555Z" fill="#A79132"/>
<rect x="2.5" y="2.5" width="95" height="95" rx="47.5" stroke="#A79132" stroke-width="5"/>
</svg>
