<svg width="102" height="48" viewBox="0 0 102 48" fill="none" xmlns="http://www.w3.org/2000/svg">
<g clip-path="url(#clip0_1_27)">
<path d="M14.7143 23.4289C13.8708 21.9679 14.3714 20.0998 15.8323 19.2563L34.3495 8.56539V8.56539C35.193 10.0264 34.6925 11.8945 33.2315 12.738L14.7143 23.4289V23.4289Z" fill="#A79132"/>
<path d="M14.0053 34.4194C13.1618 32.9584 13.6624 31.0903 15.1233 30.2468L33.6405 19.5559V19.5559C34.484 21.0168 33.9835 22.885 32.5225 23.7285L14.0053 34.4194V34.4194Z" fill="#A79132"/>
<path d="M14.3598 28.9241C13.5163 27.4632 14.0169 25.595 15.4778 24.7515L33.995 14.0606V14.0606C34.8385 15.5216 34.338 17.3897 32.877 18.2332L14.3598 28.9241V28.9241Z" fill="#A79132"/>
<path d="M13.6508 39.9146C12.8073 38.4536 13.3079 36.5855 14.7688 35.742L33.286 25.0511V25.0511C34.1295 26.5121 33.629 28.3802 32.168 29.2237L13.6508 39.9146V39.9146Z" fill="#A79132"/>
<rect x="1.2" y="1.2" width="45.6" height="45.6" rx="22.8" stroke="#A79132" stroke-width="2.4"/>
<path d="M53.448 36V10.8H69.72V14.508H58.056V21.564H67.488V25.2H58.056V36H53.448ZM73.1681 36V10.08H77.7761V36H73.1681ZM84.7165 43.92L88.8565 34.812H87.7765L80.8285 18.144H85.8325L90.8365 30.708L96.0565 18.144H100.953L89.6125 43.92H84.7165Z" fill="white"/>
</g>
<defs>
<clipPath id="clip0_1_27">
<rect width="102" height="48" fill="white"/>
</clipPath>
</defs>
</svg>
